<?xml version="1.0"?>
<svg width="64" height="64" xmlns="http://www.w3.org/2000/svg" xmlns:svg="http://www.w3.org/2000/svg">
 <!-- Created with SVG-edit - http://svg-edit.googlecode.com/ -->
 <g>
  <title>Layer 1</title>
 </g>
 <g>
  <title>Layer 2</title>
  <path d="m3.181818,22.545454c0.727273,-0.632576 1.232289,-1.18239 1.606061,-1.969696c0.354724,-0.747185 0.612414,-1.539122 1.225697,-2.036848c0.623379,-0.50592 1.150839,-1.169891 1.765576,-1.614304c0.637962,-0.461203 1.481659,-0.651278 2.275394,-0.742788c0.885047,-0.102039 1.736814,0.088757 2.504485,0.370182c0.747708,0.274107 1.450812,0.749992 1.905909,1.38306c0.457378,0.636242 0.803642,1.400478 0.898455,2.210636c0.10232,0.874308 -0.064045,1.761776 0.182303,2.617697c0.222531,0.773172 0.819068,1.378124 1.090667,2.123636c0.281847,0.773645 0.45603,1.544085 0.727272,2.255516c0.286963,0.752666 0.453974,1.533077 0.545454,2.348364c0.099339,0.885323 0.18354,1.807695 -0.030302,2.660606c-0.181683,0.724636 -0.47658,1.505913 -0.894302,2.175758c-0.446817,0.716499 -0.974199,1.324516 -1.630425,1.790424c-0.673537,0.478199 -1.146567,1.084805 -1.823878,1.46703c-0.720009,0.406322 -1.440082,0.877502 -1.954424,1.536484c-0.492592,0.631115 -0.781693,1.501167 -1.536486,1.772366c-0.841295,0.30228 -1.836313,0.090992 -2.484242,-0.412243c-0.650121,-0.50494 -1.398011,-0.760685 -2.045939,-1.260242c-0.644679,-0.497051 -1.133641,-1.14465 -1.677333,-1.768486c-0.518021,-0.594379 -0.996871,-1.18037 -1.613576,-1.698547c-0.63845,-0.536449 -1.078802,-1.215679 -1.271757,-1.945454c-0.209279,-0.791512 -0.128481,-1.713909 -0.128243,-2.590424c0.000242,-0.890667 0.453975,-1.530165 0.545455,-2.345211c0.099398,-0.885592 0,-1.782061 0,-2.654789c0,-0.891727 0.258181,-1.640135 0.727303,-2.236334c0.49282,-0.626318 0.727242,-1.400272 1.100455,-2.099545l0.687394,-0.458061l0.424243,-0.69697l0.410666,-0.722666" id="svg_2" stroke-width="2" stroke="#000000" fill="#66007d"/>
  <path d="m20.636364,3.818182c0.818182,-0.545455 1.316221,-1.19449 1.818182,-1.818182c0.484394,-0.601864 1.367424,-0.727273 2.246758,-0.727273c0.897879,0 1.750898,0.047423 2.485121,0.286303c0.772121,0.251211 1.803743,0.086591 2.343758,0.674424c0.541132,0.589049 0.651091,1.478864 0.742546,2.312c0.095255,0.867757 0.006212,1.751775 0.181818,2.509091c0.188749,0.813993 0.536596,1.593723 0.723484,2.312879c0.226749,0.872541 0.185606,1.658545 0.185606,2.541667c0,0.888969 0.086781,1.776933 0.17803,2.549242c0.104858,0.887502 0.094101,1.7616 0.185606,2.55985c0.101892,0.888874 0.210732,1.651478 0.299515,2.446756c0.096611,0.865383 0.06625,1.754547 -0.117697,2.553244c-0.183485,0.796703 -0.75625,1.408009 -1.449938,1.877333c-0.694441,0.469833 -1.433033,0.782228 -2.095516,1.195395c-0.673471,0.420019 -1.37734,0.847231 -2.101303,1.026787c-0.85313,0.211592 -1.752851,0.062393 -2.553211,-0.117697c-0.815878,-0.18358 -1.575302,-0.452446 -2.203909,-0.88703c-0.66065,-0.456736 -1.322641,-0.957022 -1.975031,-1.424971c-0.661766,-0.474674 -0.959341,-1.164019 -1.075636,-2.036364c-0.107254,-0.804527 -0.281818,-1.64846 -0.541668,-2.469818c-0.24243,-0.766294 -0.454912,-1.558773 -0.821968,-2.272728c-0.36293,-0.705929 -0.360762,-1.573388 -0.636364,-2.327271c-0.273737,-0.748783 -0.363636,-1.607788 -0.363636,-2.49091c0,-0.897454 0.100016,-1.781045 0.374029,-2.581819c0.274801,-0.80308 0.753242,-1.475758 1.084303,-2.145454c0.364614,-0.737572 0.823021,-1.282043 1.080576,-2.065697c0.238182,-0.72471 0.777235,-1.436157 1.356606,-2.020606c0.534214,-0.538896 1.231516,-0.913939 2.013577,-1.095515l0.688,-0.348364" id="svg_3" stroke-width="2" stroke="#000000" fill="#66007d"/>
  <path d="m44.090908,2.727273c0.960972,0.181818 1.769928,0.337891 2.563637,0.545455c0.756145,0.19774 1.176273,0.8889 1.735878,1.464121c0.590439,0.606916 1.294086,1.111472 1.700485,1.838909c0.379242,0.678829 0.55011,1.494411 0.727272,2.278788c0.184654,0.817547 0.18182,1.700484 0.18182,2.599999c0,0.887031 -0.279781,1.627115 -0.545456,2.327273c-0.297344,0.783624 -0.286812,1.666616 -0.545452,2.454546c-0.24482,0.745829 -0.311291,1.578833 -0.363636,2.411636c-0.056061,0.891905 -0.405712,1.484758 -0.7197,2.170181c-0.361217,0.788515 -0.329838,1.707258 -0.734848,2.363636c-0.418831,0.678774 -1.089615,1.229658 -1.808605,1.609575c-0.703255,0.371603 -1.319023,0.698935 -1.99918,1.09091c-0.663265,0.38224 -1.335812,0.836306 -2.105091,1.023001c-0.862106,0.209223 -1.783974,0.106506 -2.668697,0.003786c-0.816628,-0.094814 -1.568226,-0.511477 -2.216488,-0.91103c-0.678806,-0.418381 -1.31078,-1.002665 -1.838303,-1.634424c-0.530117,-0.634867 -0.799015,-1.450184 -1.077332,-2.177212c-0.298313,-0.779266 -0.286304,-1.677334 -0.286304,-2.568213c0,-0.89094 0,-1.763666 0,-2.654575c0,-0.890909 -0.107704,-1.77663 0,-2.672728c0.091564,-0.761824 0.523357,-1.421258 0.545456,-2.300485c0.022602,-0.899231 0.11594,-1.722383 0.523392,-2.394333c0.445614,-0.734883 0.977695,-1.338865 1.454548,-1.99997c0.468918,-0.650104 0.852669,-1.368892 1.385696,-1.959758c0.565193,-0.626522 1.274555,-0.923622 2.013577,-1.272727c0.697151,-0.329326 1.394211,-0.728091 2.062061,-1.142546l0.720482,-0.352242l0.713215,-0.323394l0.874424,0" id="svg_4" stroke-width="2" stroke="#000000" fill="#66007d"/>
  <path d="m58.090908,19.09091c0.909092,0.272726 1.668617,0.500353 2.298698,1.037182c0.616829,0.525537 0.795895,1.36194 0.97403,2.118666c0.185661,0.788712 0.27216,1.673052 0.363636,2.490091c0.100086,0.89393 -0.060181,1.760908 -0.181816,2.572243c-0.128326,0.855965 -0.183388,1.687626 -0.363636,2.472727c-0.179611,0.78233 -0.27919,1.678175 -0.18182,2.545696c0.09148,0.815048 0.492874,1.527081 0.705181,2.258213c0.24081,0.8293 0.071575,1.626549 -0.35194,2.259243c-0.46785,0.698925 -0.851627,1.435459 -1.341606,2.136848c-0.478073,0.684345 -0.727024,1.46294 -1.193455,2.109089c-0.455475,0.63097 -0.904541,1.328808 -1.484848,1.9697c-0.552364,0.610031 -1.194904,1.128403 -1.904755,1.495239c-0.668907,0.345676 -1.474236,0.663418 -2.35585,0.535061c-0.810177,-0.117958 -1.536057,-0.442745 -2.250759,-0.81818c-0.682903,-0.35873 -1.240898,-0.997852 -1.85833,-1.581818c-0.635159,-0.600731 -1.214302,-1.288445 -1.600033,-1.981789c-0.393116,-0.706619 -0.752808,-1.410923 -1.324333,-1.966576c-0.593422,-0.576939 -1.04129,-1.165028 -1.387394,-1.885334c-0.326847,-0.680233 -0.803135,-1.346413 -1.106182,-2.078304c-0.326366,-0.788212 -0.278965,-1.729649 -0.18206,-2.615273c0.089546,-0.818382 0.315331,-1.619581 0.778908,-2.330181c0.41745,-0.639894 0.868034,-1.285763 1.443153,-1.811394c0.607548,-0.555267 1.14333,-1.229149 1.755878,-1.858395c0.581902,-0.597761 1.247345,-1.076223 1.830666,-1.682333c0.570816,-0.593115 1.157364,-1.096498 1.686184,-1.732c0.475845,-0.571838 1.294994,-0.855644 1.868847,-1.298574c0.639908,-0.493914 1.191185,-1.121014 1.909092,-1.481062c0.74033,-0.371294 1.545456,-0.51515 2.450756,-0.518938l0.785606,-0.17803l0.891727,0" id="svg_5" stroke-width="2" stroke="#000000" fill="#66007d"/>
  <path d="m32.090908,27.272728c1.054546,0 1.934723,-0.115736 2.829819,0c0.827087,0.106943 1.404991,0.763517 1.897213,1.418423c0.478935,0.637228 0.797688,1.414968 1.090332,2.15382c0.305553,0.771444 0.573128,1.51458 0.916454,2.242058c0.333408,0.706463 0.664719,1.43642 1.094757,2.120758c0.407909,0.649117 0.855183,1.361332 1.296032,1.992214c0.467747,0.669373 0.904655,1.330536 1.343513,1.993454c0.430347,0.650059 0.928211,1.204613 1.298428,1.912727c0.393051,0.751793 0.763554,1.464863 1.360485,2.021091c0.589588,0.549389 1.099739,1.257092 1.854786,1.670788c0.718239,0.393528 1.434631,0.770538 1.917698,1.44788c0.4603,0.645424 0.536404,1.510262 0.888363,2.299515c0.347359,0.778934 0.674072,1.554718 0.575756,2.434422c-0.091354,0.817387 -0.629745,1.439705 -1.121212,2.111031c-0.490997,0.670681 -0.854507,1.377163 -1.232029,2.064941c-0.387405,0.705788 -0.476833,1.588165 -1.141544,2.094818c-0.639259,0.487251 -1.358932,0.835388 -2.024696,1.284393c-0.631924,0.426186 -1.302505,0.828056 -2.168758,0.919483c-0.87056,0.091881 -1.611622,0.428753 -2.376698,0.716881c-0.770309,0.2901 -1.247082,0.76823 -1.971424,1.101303c-0.684986,0.314976 -1.548122,0.363636 -2.446758,0.363636c-0.876728,0 -1.762562,0.090328 -2.571423,0.181816c-0.885265,0.100128 -1.78182,0 -2.668941,0c-0.894697,0 -1.785606,0 -2.670454,0c-0.89694,0 -1.788853,0.004139 -2.568878,-0.181816c-0.761641,-0.181572 -1.439196,-0.595867 -2.219,-0.905304c-0.786623,-0.312141 -1.61801,-0.445347 -2.418182,-0.679424c-0.80007,-0.234047 -1.596529,-0.472424 -2.333818,-0.785454c-0.778421,-0.330494 -1.51829,-0.693642 -2.175272,-1.18885c-0.710261,-0.535366 -1.462342,-1.005558 -2.072758,-1.572121c-0.59221,-0.549667 -1.199877,-1.10041 -1.802879,-1.647999c-0.620878,-0.563824 -1.090592,-1.288502 -1.500121,-1.978424c-0.418134,-0.704418 -0.676532,-1.503139 -1.045091,-2.203152c-0.360079,-0.683907 -0.527801,-1.437778 -0.742788,-2.257454c-0.217856,-0.830608 -0.556986,-1.681755 -0.363636,-2.535061c0.181098,-0.799236 0.654853,-1.49157 1.208606,-2.064121c0.58119,-0.600922 1.000206,-1.228065 1.555515,-1.855606c0.579618,-0.65501 1.395242,-1.071766 2.017697,-1.718426c0.592293,-0.615326 1.312345,-0.973091 2.036364,-1.426788c0.726736,-0.455399 1.492516,-0.898975 2.181818,-1.450756c0.658186,-0.526871 1.210472,-1.170631 1.706484,-1.796001c0.506607,-0.638729 1.005939,-1.309471 1.711699,-1.806969c0.702164,-0.494965 1.449112,-0.911396 2.036364,-1.495514c0.594238,-0.591066 1.22501,-1.117237 1.778908,-1.708456c0.558867,-0.596521 1.046194,-1.259947 1.624969,-1.833242c0.577484,-0.572018 1.179619,-1.263336 1.944485,-1.506151c0.769793,-0.244381 1.59791,-0.312 2.489941,-0.312l0.892757,0l0.86797,0.010395l0.833454,0.211666" id="svg_6" stroke-width="2" stroke="#000000" fill="#66007d"/>
 </g>
</svg>